<?xml version="1.0" standalone="no"?><!DOCTYPE svg PUBLIC "-//W3C//DTD SVG 1.1//EN" "http://www.w3.org/Graphics/SVG/1.1/DTD/svg11.dtd"><svg class="icon" fill="#fff" height="512" viewBox="0 0 1024 1024" version="1.1" xmlns="http://www.w3.org/2000/svg"><path d="M722.9 904.71c17.685-28.176 21.983-62.154 12.383-93.401l33.707-53.743c18.785 2.01 37.69 1.469 55.929-2.703 42.188-9.649 80.7-35.378 105.464-74.831 37.39-59.498 33.693-136.298-8.731-192.111-0.403-0.644-0.781-1.259-1.244-1.869-0.079-0.101-0.131-0.216-0.209-0.316-0.34-0.434-0.842-0.621-1.202-1.027-1.602-1.815-3.152-3.687-5.306-5.039-0.339-0.213-0.732-0.212-1.079-0.408-0.555-0.313-1.178-0.394-1.753-0.662-5.734-2.708-11.914-3.367-17.718-1.763-0.034 0.01-0.066 0.036-0.103 0.046-3.113 0.874-6.022 2.29-8.638 4.288-0.149 0.109-0.331 0.125-0.478 0.238-0.899 0.709-1.356 1.713-2.135 2.513-1.251 1.285-2.703 2.31-3.695 3.892l-52.364 83.487-37.157-23.324 52.575-83.689c7.585-12.083 3.941-28.015-8.142-35.6-2.173-1.364-4.548-1.954-6.9-2.609-0.74-0.236-1.311-0.753-2.083-0.925-0.194-0.043-0.39-0.04-0.585-0.082l-0.063-0.01c-69.49-15.243-141.472 14.906-179.307 75.246-35.492 56.542-32.758 125.882 0.327 179.063l-33.207 52.856c-32.881 4.612-62.261 23.301-80.244 51.948-33.222 52.928-17.184 123.046 35.742 156.268 26.463 16.61 57.201 20.912 85.522 14.435 28.271-6.47 54.082-23.705 70.694-50.168z m-35.094-376.946c19.344-30.866 51.577-50.242 86.494-54.163l-34.745 55.314c-5.954 9.486-7.845 20.682-5.299 31.586 2.497 10.916 9.102 20.116 18.457 25.945l53.974 33.963c9.706 6.009 20.98 7.57 31.404 5.185 10.425-2.384 19.95-8.702 26.104-18.441l34.083-54.336c10.943 32.721 7.39 69.443-11.638 99.755-34.446 54.811-106.952 71.498-161.822 37.012-54.799-34.395-71.41-107.021-37.012-161.82z m-93.667 368.934c-28.82-18.09-37.547-56.248-19.457-85.068 11.275-17.893 30.714-28.601 51.754-28.913 0.929-0.008 1.697-0.442 2.597-0.542 0.962-0.109 1.955 0.122 2.898-0.094 0.771-0.176 1.416-0.714 2.168-0.961a24.683 24.683 0 0 0 4.846-2.148 24.754 24.754 0 0 0 3.408-2.348c1.588-1.299 2.918-2.729 4.149-4.367 0.461-0.609 1.128-0.965 1.542-1.623l31.936-50.831c5.631 4.658 11.025 9.535 17.381 13.524 6.354 3.988 13.092 6.728 19.737 9.774l-32.01 51.038c-0.19 0.303-0.187 0.652-0.362 0.959a25.088 25.088 0 0 0-3.119 8.252c-0.047 0.266-0.093 0.521-0.133 0.788-0.475 3.031-0.362 6.038 0.299 9.136 0.051 0.239 0.104 0.46 0.163 0.697 0.386 1.588 0.408 3.204 1.117 4.746 8.636 18.982 7.179 40.891-3.894 58.534-18.042 28.81-56.273 37.449-85.02 19.447zM449.289 952.478c-1.374 0-2.762-0.095-4.163-0.313l-7.332-1.17C222.613 914.892 66.417 730.033 66.417 511.478c0-245.776 199.945-445.721 445.707-445.721 150.619 0 289.974 75.255 372.778 201.306a472.825 472.825 0 0 1 6.693 10.488c8.081 13.1 4.013 30.268-9.074 38.348-13.087 8.094-30.281 4.027-38.348-9.074a360.24 360.24 0 0 0-5.849-9.182c-72.466-110.311-194.409-176.166-326.2-176.166-215.045 0-389.987 174.955-389.987 390.001 0 191.239 136.648 352.985 324.907 384.573l6.326 1.02c15.222 2.272 25.711 16.46 23.425 31.669-2.067 13.821-13.943 23.738-27.506 23.738zM431.7 777.645c-2.87 0-5.795-0.449-8.679-1.401-114.705-37.587-191.769-143.98-191.769-264.766 0-153.611 124.962-278.574 278.574-278.574 78.724 0 154.142 33.546 206.91 92.042a276.617 276.617 0 0 1 6.176 7.087c9.903 11.767 8.393 29.343-3.374 39.26-11.794 9.863-29.357 8.407-39.26-3.374l-4.911-5.645c-42.225-46.81-102.571-73.65-165.542-73.65-122.881 0-222.854 99.973-222.854 222.854 0 96.626 61.651 181.757 153.407 211.821 14.624 4.788 22.582 20.528 17.793 35.152-3.848 11.739-14.745 19.194-26.471 19.194zM468.416 603.683a27.764 27.764 0 0 1-14.42-4.04c-31.098-18.868-49.667-51.83-49.667-88.165 0-56.836 46.239-103.074 103.074-103.074 22.432 0 43.763 7.087 61.679 20.487 12.325 9.21 14.855 26.663 5.632 38.988-9.21 12.325-26.649 14.841-38.988 5.632-8.217-6.135-18.011-9.386-28.323-9.386-26.105 0-47.354 21.249-47.354 47.354 0 16.692 8.543 31.846 22.84 40.525 13.155 7.985 17.358 25.112 9.373 38.267-5.236 8.637-14.432 13.412-23.846 13.412zM492.277 613.015c-1.836 0-3.714-0.177-5.577-0.558a102.167 102.167 0 0 1-32.703-12.815c-13.155-7.972-17.358-25.112-9.373-38.267 7.985-13.168 25.139-17.331 38.267-9.373a46.411 46.411 0 0 0 14.91 5.85c15.086 3.074 24.813 17.78 21.752 32.853-2.695 13.209-14.299 22.31-27.276 22.31z" /></svg>